/* XPM */
static char * g800icon_xpm[] = {
"32 32 8 1",
".	c None",
"+	c #000000",
"@	c #C0C0C0",
"#	c #008000",
"$	c #FFFFFF",
"%	c #808000",
"&	c #800000",
"*	c #808080",
"................................",
"................................",
"................................",
"................................",
"................................",
"................................",
"..++++++++++++++++++++++++++++..",
".+@@@@@@@@@@@@@@@@@@@@@@@@@@@@+.",
"+++++++++++++++++++++@@@@@@@@@@+",
"+++++++++++++++++++++@#@#@+@+@@+",
"++@@@@@@@@@@@@@@@@@@+@@@@@@@@@@+",
"++@$$$$$$$$$$$$$$$$$+@%@+@+@&@@+",
"++@$$$$$$$$$$$$$$$$$+@@@@@@@@@@+",
"++@$$$$$$$$$$$$$$$$$+@+@+@+@+@@+",
"+++++++++++++++++++++@@@@@@@@@@+",
"+@@@@@@@@@@@@@@@@@@@@@@@@@@@@@@+",
"+@+@+@+@+@+@+@+@+@+@@@+@+@+@+@@+",
"+@@@@@@@@@@@@@@@@@@@@@@@@@@@@@@+",
"+@+@@+@+@+@+@+@+@+@+@@+@+@+@+@@+",
"+@@@@@@@@@@@@@@@@@@@@@@@@@@@@@@+",
"+@%@+@+@+@+@+@+@+@++@@+@+@+@+@@+",
"+@@@@@@@@@@@@@@@@@@@@@@@@@@@+@@+",
"+@@@+@+++++++++@+@+@@@+@+@+@+@@+",
"+*@@@@@@@@@@@@@@@@@@@@@@@@@@@@*+",
"+******************************+",
".+****************************+.",
"..++++++++++++++++++++++++++++..",
"................................",
"................................",
"................................",
"................................",
"................................"};
